<?xml version="1.0" encoding="UTF-8" standalone="no"?><!-- Generator: Gravit.io --><svg xmlns="http://www.w3.org/2000/svg" xmlns:xlink="http://www.w3.org/1999/xlink" style="isolation:isolate" viewBox="0 0 300 300" width="300pt" height="300pt"><defs><clipPath id="_clipPath_msRr0hR0WOnPjyxfdI5lARlCCtg7uC92"><rect width="300" height="300"/></clipPath></defs><g clip-path="url(#_clipPath_msRr0hR0WOnPjyxfdI5lARlCCtg7uC92)"><defs><filter id="MgunoMl0ygkwkqMTEeX4uau4QqgwEgNo" x="-200%" y="-200%" width="400%" height="400%" filterUnits="objectBoundingBox" color-interpolation-filters="sRGB"><feGaussianBlur xmlns="http://www.w3.org/2000/svg" in="SourceGraphic" stdDeviation="2.146804531419514"/><feOffset xmlns="http://www.w3.org/2000/svg" dx="-5" dy="4" result="pf_100_offsetBlur"/><feFlood xmlns="http://www.w3.org/2000/svg" flood-color="#000000" flood-opacity="0.65"/><feComposite xmlns="http://www.w3.org/2000/svg" in2="pf_100_offsetBlur" operator="in" result="pf_100_dropShadow"/><feBlend xmlns="http://www.w3.org/2000/svg" in="SourceGraphic" in2="pf_100_dropShadow" mode="normal"/></filter></defs><g filter="url(#MgunoMl0ygkwkqMTEeX4uau4QqgwEgNo)"><path d=" M 212.705 98.71 C 212.705 64.059 184.646 36 149.996 36 C 115.345 36 87.286 64.059 87.286 98.71 C 87.286 133.361 98.996 262.95 98.996 262.95 C 98.996 262.95 102.375 189.919 117 161 C 117.558 159.897 120.192 161.827 122 162 C 122.208 162.02 121.86 161.995 122 162 C 122.086 162.003 122.175 161.999 122.284 162 C 122.352 162.001 122.911 162.015 123 162 C 123.435 161.924 125.556 163.95 126 164 C 126.748 164.083 128.358 164.826 129 165 C 131.276 165.618 132.164 166.041 134.996 166.305 C 137.7 166.558 139.462 167.253 143.572 167.007 C 144.375 166.959 145.239 167.091 146.17 167.007 C 146.404 166.986 149.413 166.992 151.17 167.007 C 151.435 167.009 150.414 166.99 150.004 166.984 C 149.3 166.975 148 167.102 148 166.977 C 148 166.724 147.999 166.997 148 167.007 C 148.005 167.08 147.837 167.007 148 167.007 C 148.163 167.007 148.306 167.007 148.417 167.007 C 148.91 167.007 149.706 166.995 150.004 166.984 C 150.504 166.967 150.826 167.014 151.004 167.014 C 151.403 167.014 151.17 166.993 151.17 167.007 C 151.17 167.011 151.189 167.014 151.249 167.014 C 151.35 167.014 151.364 167.04 151.8 167.018 C 151.868 167.014 151.936 167.011 152.004 167.007 C 159.498 166.597 172.479 163.596 179.996 159.95 C 185.012 157.516 187.923 155.979 193.306 151.379 C 195.725 149.313 198.031 147.126 199.996 144.95 C 202.173 142.538 203.978 139.98 205.476 137.341 C 213.265 123.612 212.705 107.69 212.705 98.71 L 212.705 98.71 Z  M 110.749 100.947 C 110.749 79.272 128.32 61.701 149.996 61.701 C 171.671 61.701 189.242 79.272 189.242 100.947 C 189.242 122.657 171.645 140.194 149.996 140.194 C 128.346 140.194 110.749 122.657 110.749 100.947 L 110.749 100.947 Z " fill="rgb(138,36,36)"/></g><defs><filter id="0DP9sAlWNiDk3Qm6TJsXyAoPdTzqybVn" x="-200%" y="-200%" width="400%" height="400%" filterUnits="objectBoundingBox" color-interpolation-filters="sRGB"><feGaussianBlur xmlns="http://www.w3.org/2000/svg" in="SourceGraphic" stdDeviation="2.146804531419514"/><feOffset xmlns="http://www.w3.org/2000/svg" dx="-5" dy="4" result="pf_100_offsetBlur"/><feFlood xmlns="http://www.w3.org/2000/svg" flood-color="#000000" flood-opacity="0"/><feComposite xmlns="http://www.w3.org/2000/svg" in2="pf_100_offsetBlur" operator="in" result="pf_100_dropShadow"/><feBlend xmlns="http://www.w3.org/2000/svg" in="SourceGraphic" in2="pf_100_dropShadow" mode="normal"/></filter></defs><g filter="url(#0DP9sAlWNiDk3Qm6TJsXyAoPdTzqybVn)"><path d=" M 116.998 153.954 C 117.186 147.241 130.967 142.174 147.753 142.644 C 164.54 143.115 178.015 148.947 177.827 155.66 C 177.639 162.372 163.858 167.44 147.071 166.97 C 130.285 166.499 116.809 160.667 116.998 153.954 Z " fill="rgb(138,36,36)"/></g><defs><filter id="WbU4EcgTvk1Nbbz35Q5u4vU94t5z5jTi" x="-200%" y="-200%" width="400%" height="400%" filterUnits="objectBoundingBox" color-interpolation-filters="sRGB"><feGaussianBlur xmlns="http://www.w3.org/2000/svg" in="SourceGraphic" stdDeviation="2.146804531419514"/><feOffset xmlns="http://www.w3.org/2000/svg" dx="5" dy="4" result="pf_100_offsetBlur"/><feFlood xmlns="http://www.w3.org/2000/svg" flood-color="#000000" flood-opacity="0"/><feComposite xmlns="http://www.w3.org/2000/svg" in2="pf_100_offsetBlur" operator="in" result="pf_100_dropShadow"/><feBlend xmlns="http://www.w3.org/2000/svg" in="SourceGraphic" in2="pf_100_dropShadow" mode="normal"/></filter></defs><g filter="url(#WbU4EcgTvk1Nbbz35Q5u4vU94t5z5jTi)"><ellipse vector-effect="non-scaling-stroke" cx="145.50000000000003" cy="153.50000000000003" rx="31.50000000000002" ry="13.499999999999972" fill="rgb(138,36,36)"/></g></g></svg>